<svg width="143" height="39" xmlns="http://www.w3.org/2000/svg" xmlns:xlink="http://www.w3.org/1999/xlink"><defs><path id="a" d="M.125.013h22.08v38.072H.125z"/></defs><g fill="none" fill-rule="evenodd"><path d="M3.477 30.227l.216.068c2.585.823 5.347-.496 6.137-2.932l2.925-9.476c.79-2.436-.678-5.103-3.263-5.926l-.216-.069c-2.585-.823-5.347.496-6.137 2.932L.214 24.301c-.79 2.436.678 5.102 3.263 5.926" fill="#084F99"/><g transform="translate(22.1)"><mask id="b" fill="#fff"><use xlink:href="#a"/></mask><path d="M12.474 3.36A5.48 5.48 0 0 1 15.243.464c.06-.027.12-.057.18-.082.035-.015.07-.027.104-.04.988-.38 2.078-.448 3.126-.115l.216.069c2.585.823 3.961 3.772 3.059 6.553L14.84 30.792C12.99 36.3 7.111 39.15 2.052 37.72c0 0-1.364-.405-1.927-.81C5.154 35.827 11.47 5.785 12.474 3.358" fill="#5EB7FF" mask="url(#b)"/></g><path d="M4.297 33.39l.216.069a6.17 6.17 0 0 0 3.283.121c.17-.035.334-.083.497-.137 2.084-.662 3.876-2.367 4.636-4.709l5.518-18.213c.91-2.767 3.754-4.36 6.332-3.538l.216.069c2.585.823 3.962 3.772 3.06 6.553 0 0-5.251 17.258-5.984 18.693-5.358 9.707-15.422 4.964-18.273.902.163.069.327.135.5.19" fill="#1479FB"/><g fill="#2B2B2B"><path d="M122.772 14.387l.014-.104a.44.44 0 0 0-.055-.202c-.144-.287-.957-.867-2.264-.98a4.077 4.077 0 0 0-.345-.014c-.923 0-1.955.379-2.165.794l-.017.04-5.336 13.127-5.138-13.18c-.216-.398-1.435-.833-2.345-.833-.052 0-.134-.004-.226-.008a4.031 4.031 0 0 0-.402-.008c-1.28.135-1.739.683-1.898.998a.453.453 0 0 0-.055.197l.01.107c.205.52 7.195 17.942 7.574 18.886l.024.026c.273.293 1.593.711 2.461.711.865 0 2.113-.32 2.385-.611l.024-.026 7.74-18.87.014-.05zM96.507 26.48c0 1.357-.34 2.331-.959 2.744-.525.318-1.513.69-3.288.69l-.201-.001c-1.512 0-2.68-.28-3.47-.83-.623-.434-.98-1.032-.98-1.642 0-1.85 1.042-2.185 4.174-2.254h4.724v1.293zm4.353 6.74a.463.463 0 0 0 .047-.19V19.82c-.026-2.492-.833-4.28-2.398-5.314-1.501-.966-3.521-1.457-6.002-1.457l-.42-.001c-3.19 0-6.075 1.135-7.53 2.964a.408.408 0 0 0-.048.108c-.166.53.534 1.34 1.254 1.868.633.464 1.313.752 1.776.752.103-.02.528-.299.616-.383.486-.464 1.804-1.547 3.545-1.583l.754-.019c1.444 0 2.853.66 3.5 1.312.382.383.562.883.553 1.529v1.948h-6.308c-2.191.025-3.884.625-5.028 1.785-1.147 1.136-1.728 2.587-1.728 4.312 0 1.806.665 3.307 1.976 4.461 1.3 1.232 4.035 1.805 6.172 1.83 1.393 0 2.503-.173 3.296-.513.484-.197.898-.461 1.234-.787l.386-.373v.77c0 .076.024.14.048.193.228.496 1.275.722 2.152.722.877 0 1.925-.227 2.153-.725zM128.174 20.978c.253-1.985.872-2.844 1.724-3.523.871-.694 1.926-.861 3.452-.915 1.293-.047 2.903.492 3.656 1.226.724.729 1.145 1.793 1.256 3.165l.02.242-10.14.06.032-.255zm14.267 9.618c.146-.549-.568-1.37-1.292-1.901-.628-.461-1.29-.74-1.817-.765-.289 0-.47.152-.518.199-1.258 1.136-2.68 1.71-4.234 1.71-1.401 0-3.839-.484-4.77-1.392-.922-.824-1.496-2.066-1.566-3.4l-.013-.24.243.003c.131.002 13.13.198 13.343.198a.758.758 0 0 0 .556-.26c.587-.634.615-2.426.54-3.384l-.001-.016c-.028-2.804-.92-5.04-2.652-6.646-1.786-1.654-4.844-2.58-7.973-2.416-1.261.066-2.228.237-3.135.556a7.838 7.838 0 0 0-2.908 1.822c-.846.825-1.547 1.962-2.085 3.382-.536 1.393-.808 3.158-.808 5.247 0 2.175.312 3.964.927 5.318.571 1.435 1.326 2.563 2.249 3.366.462.377.979.708 1.49.952 2.227 1.182 4.292 1.327 5.8 1.433l.125.008c.125.004 4.68.123 8.423-3.607a.465.465 0 0 0 .076-.167zM76.784 33.26c.394-1.025 5.805-18.65 5.97-19.193l.015-.114a.443.443 0 0 0-.054-.202c-.09-.18-.894-.898-2.306-1.065a4.092 4.092 0 0 0-.466-.026c-.989 0-2.065.352-2.259.739l-.022.053-3.811 13.434-4.942-13.477c-.142-.402-1.119-.795-1.973-.795-.882 0-1.96.409-2.097.795l-.132-.046-.001.005.133.042-4.248 13.242-4.078-13.12-.035-.082c-.2-.38-1.262-.836-2.293-.836-.095 0-.482.036-.69.055l-.196.017c-1.336.11-1.801.758-1.94 1.031a.452.452 0 0 0-.054.205l.002.052-.002.014 6.316 19.234c.195.44 1.76.721 2.76.721 1.027 0 2.683-.27 3.007-.696l3.666-12.123 4.353 12.101c.179.435 1.76.72 2.768.72 1.128 0 2.426-.24 2.609-.685"/></g></g></svg>